<svg width="137" height="137" viewBox="0 0 137 137" fill="none" xmlns="http://www.w3.org/2000/svg">
<path d="M116.958 20.0695C103.999 7.13828 86.8124 0 68.5 0C50.1876 0 33.0008 7.13828 20.0695 20.0695C7.13828 33.0008 0 50.215 0 68.5C0 86.8124 7.13828 103.999 20.0695 116.93C33.0008 129.862 50.215 137 68.5 137C86.785 137 103.999 129.862 116.93 116.93C129.862 103.999 137 86.785 137 68.5C137 50.215 129.889 33.0283 116.958 20.0695ZM113.059 113.087C101.144 125.002 85.3299 131.536 68.5 131.536C51.6701 131.536 35.8287 124.975 23.9407 113.087C12.0252 101.171 5.49098 85.3573 5.49098 68.5275C5.49098 51.6976 12.0527 35.8561 23.9407 23.9681C35.8561 12.0527 51.6701 5.51844 68.5 5.51844C85.3299 5.51844 101.171 12.0802 113.059 23.9681C124.975 35.8836 131.509 51.6976 131.509 68.5275C131.509 85.3573 124.975 101.171 113.059 113.087Z" fill="#408B54"/>
<path d="M66.3277 58.6036L66.3776 58.7685C67.3013 61.0495 67.9753 62.671 68.0502 65.1719C68.1002 67.8652 67.1515 70.476 66.7521 71.4929C66.2278 72.8945 66.5773 74.5159 67.5509 75.4229C67.9753 75.8076 68.4746 76 68.9739 76C69.1986 76 69.3983 75.9725 69.598 75.8901C70.2721 75.6427 70.8712 75.0656 71.1458 74.3236C72.0695 72.1525 73.0931 68.7172 72.9932 65.062C72.8934 61.1595 71.8948 58.6861 70.7963 56.0477L70.6965 55.8004C70.5966 55.5531 70.5217 55.3332 70.4219 55.0858C69.9975 53.9866 69.5231 52.8598 69.1237 51.4857C68.4497 49.2046 69.8976 46.0166 70.5467 44.7799C70.8213 44.2303 70.9461 43.5982 70.9461 42.9936L70.7214 41.7294L70.0724 40.74C69.5481 40.1629 68.8491 39.9155 68.1251 40.0255C67.4261 40.1629 66.802 40.6301 66.4026 41.3721C66.0531 41.9767 65.7285 42.7737 65.404 43.5432C63.9311 47.1984 63.6065 50.6612 64.4803 53.5743C65.0794 55.6355 65.7784 57.2845 66.3277 58.6036Z" fill="#408B54"/>
<path d="M80.5863 58.6036L80.6418 58.7685C81.6682 61.0495 82.4171 62.671 82.5003 65.1719C82.5558 67.8652 81.5017 70.476 81.0579 71.4929C80.4754 72.8945 80.8637 74.5159 81.9456 75.4229C82.4171 75.8076 82.9719 76 83.5267 76C83.7763 76 83.9982 75.9725 84.2201 75.8901C84.9691 75.6427 85.6348 75.0656 85.94 74.3236C86.9386 72.1525 88.1036 68.7172 87.9926 65.062C87.8817 61.1595 86.7721 58.6861 85.5516 56.0477L85.4407 55.8004C85.3297 55.5531 85.2465 55.3332 85.1355 55.0858C84.664 53.9866 84.1369 52.8598 83.6931 51.4857C82.9442 49.2046 84.553 46.0166 85.2742 44.7799C85.5794 44.2303 85.718 43.5982 85.718 42.9936L85.4684 41.7294L84.7472 40.74C84.1647 40.1629 83.388 39.9155 82.5835 40.0255C81.8069 40.1629 81.1134 40.6301 80.6696 41.3721C80.2812 41.9767 79.9206 42.7737 79.56 43.5432C77.9234 47.1984 77.5628 50.6612 78.5337 53.5743C79.2271 55.6355 79.9761 57.2845 80.5863 58.6036Z" fill="#408B54"/>
<path d="M51.5853 58.6036L51.6408 58.7685C52.6667 61.0495 53.4154 62.671 53.4986 65.1719C53.554 67.8652 52.5003 70.476 52.0567 71.4929C51.4744 72.8945 51.8626 74.5159 52.944 75.4229C53.4154 75.8076 53.9699 76 54.5245 76C54.7741 76 54.9959 75.9725 55.2177 75.8901C55.9664 75.6427 56.6318 75.0656 56.9368 74.3236C57.9628 72.1525 59.1274 68.7172 58.9887 65.062C58.8778 61.1595 57.7687 58.6861 56.5486 56.0477L56.4377 55.8004C56.3268 55.5531 56.2436 55.3332 56.1327 55.0858C55.6613 53.9866 55.1345 52.8598 54.6909 51.4857C53.9422 49.2046 55.5504 46.0166 56.2714 44.7799C56.5764 44.2303 56.715 43.5982 56.715 42.9936L56.4655 41.7294L55.7445 40.74C55.1622 40.1629 54.3859 39.9155 53.5817 40.0255C52.8054 40.1629 52.1122 40.6301 51.6685 41.3721C51.2803 41.9767 50.9199 42.7737 50.5594 43.5432C48.9234 47.1984 48.563 50.6612 49.5335 53.5743C50.1989 55.6355 50.9476 57.2845 51.5853 58.6036Z" fill="#408B54"/>
<path d="M97.4089 58.1693C96.5897 58.1966 95.8524 58.6052 95.3882 59.2591C94.6236 60.2944 94.6782 61.6838 95.5247 62.6101C98.2007 65.6069 99.5934 69.0397 99.5934 72.4997C99.5934 83.5879 85.3941 92.6057 67.9727 92.6057C50.5513 92.6057 36.352 83.5879 36.352 72.4997C36.352 68.9307 37.772 65.5797 40.6118 62.4466C41.431 61.5476 41.5129 60.1854 40.8576 59.2046C40.4207 58.4963 39.6834 58.0604 38.8369 58.0059C37.9904 57.9514 37.1985 58.2783 36.6251 58.8777C32.9387 62.9098 31 67.623 31 72.4724C31 79.5014 35.014 86.0127 42.2502 90.8621C49.1587 95.4663 58.3063 98 68 98C77.721 98 86.8413 95.4663 93.7498 90.8621C100.986 86.0127 105 79.5014 105 72.4724C105 67.732 103.116 63.1005 99.5387 59.1229C99.0199 58.469 98.2281 58.1149 97.4089 58.1693Z" fill="#408B54"/>
</svg>
