<svg width="26" height="26" viewBox="0 0 26 26" fill="none" xmlns="http://www.w3.org/2000/svg">
<path d="M19.9703 4.87915C19.1432 4.87915 18.4814 5.54806 18.4814 6.36802C18.4814 7.18797 19.1504 7.85688 19.9703 7.85688C20.7903 7.85688 21.4592 7.18797 21.4592 6.36802C21.4592 5.54806 20.7903 4.87915 19.9703 4.87915Z" fill="white"/>
<path d="M13.3385 6.79248C9.88603 6.79248 7.07373 9.60478 7.07373 13.0572C7.07373 16.5097 9.88603 19.322 13.3385 19.322C16.7909 19.322 19.6032 16.5097 19.6032 13.0572C19.6032 9.60478 16.7909 6.79248 13.3385 6.79248ZM13.3385 17.0707C11.1232 17.0707 9.32501 15.2725 9.32501 13.0572C9.32501 10.8419 11.1232 9.04376 13.3385 9.04376C15.5538 9.04376 17.3519 10.8419 17.3519 13.0572C17.3519 15.2725 15.5538 17.0707 13.3385 17.0707Z" fill="white"/>
<path d="M18.3088 25.7806H8.14572C3.93086 25.7806 0.5 22.3498 0.5 18.1349V7.97178C0.507193 3.76412 3.93806 0.333252 8.15291 0.333252H18.316C22.5309 0.333252 25.9618 3.76412 25.9618 7.97897V18.1421C25.9618 22.357 22.5309 25.7878 18.316 25.7878L18.3088 25.7806ZM8.15291 2.72838C5.26149 2.72838 2.90232 5.08036 2.90232 7.97897V18.1421C2.90232 21.0335 5.2543 23.3927 8.15291 23.3927H18.316C21.2075 23.3927 23.5666 21.0407 23.5666 18.1421V7.97897C23.5666 5.08755 21.2146 2.72838 18.316 2.72838H8.15291Z" fill="white"/>
</svg>
