<svg width="27" height="25" viewBox="0 0 27 25" fill="none" xmlns="http://www.w3.org/2000/svg">
<path d="M26.8807 2.9999C26.0265 3.43788 25.078 3.69926 24.1485 3.87587C24.5881 3.7911 25.2351 2.901 25.4926 2.53366C25.8883 1.98264 26.2149 1.35392 26.397 0.675753C26.4222 0.626303 26.441 0.55566 26.397 0.513275C26.3405 0.485018 26.2965 0.499146 26.2526 0.527403C25.2225 1.14906 24.1547 1.60117 23.0179 1.91906C22.9237 1.94732 22.8546 1.91906 22.7918 1.85549C22.6976 1.73539 22.6096 1.62237 22.5092 1.53053C22.0318 1.07135 21.5168 0.718139 20.9389 0.449696C20.1789 0.103547 19.3499 -0.044803 18.5333 0.0117112C17.7357 0.0682254 16.9568 0.322539 16.2534 0.739331C15.5436 1.15612 14.9155 1.73539 14.4131 2.42769C13.8918 3.14825 13.5086 4.00303 13.3139 4.90725C13.1255 5.77616 13.138 6.638 13.2574 7.52103C13.2762 7.66938 13.2574 7.68351 13.1443 7.66938C8.69116 6.92764 5.01055 5.14037 2.01456 1.30447C1.88266 1.13493 1.81357 1.13493 1.7068 1.3186C0.400368 3.52266 1.03474 7.06892 2.66777 8.8138C2.88761 9.04692 3.10744 9.28004 3.35239 9.49197C3.26446 9.51316 2.17786 9.37894 1.20432 8.8138C1.07242 8.72196 1.00962 8.77141 0.997053 8.94095C0.984492 9.18114 0.997053 9.40013 1.03474 9.65444C1.28598 11.8938 2.66149 13.9637 4.55205 14.769C4.77816 14.8749 5.02311 14.9668 5.26807 15.0162C4.84097 15.1222 4.39502 15.1999 3.16397 15.0869C3.01322 15.0515 2.95041 15.1434 3.01322 15.3059C3.93652 18.1457 5.94013 18.9934 7.43498 19.4738C7.63597 19.5162 7.83696 19.5162 8.03795 19.5656C8.02539 19.5868 8.01283 19.5868 8.00026 19.608C7.50407 20.4628 5.7831 21.0915 4.97915 21.4094C3.52198 21.9816 1.93291 22.243 0.394087 22.0734C0.149131 22.0311 0.0926031 22.0381 0.0297941 22.0734C-0.0392959 22.1229 0.0235132 22.1865 0.098884 22.2571C0.412929 22.4902 0.726975 22.6951 1.05358 22.8929C2.0334 23.4792 3.05091 23.9384 4.11866 24.2704C9.6333 25.98 15.8388 24.7225 19.9779 20.1025C23.2252 16.4715 24.3683 11.4629 24.3683 6.44726C24.3683 6.24946 24.5756 6.1435 24.6949 6.03754C25.5428 5.32405 26.2212 4.46927 26.8555 3.51559C27 3.30366 27 3.11293 27 3.03522V3.00696C27 2.92926 27 2.95045 26.8869 3.00696L26.8807 2.9999Z" fill="white"/>
</svg>
