<svg width="173" height="174" viewBox="0 0 173 174" fill="none" xmlns="http://www.w3.org/2000/svg">
<path d="M147.5 25.9002C131.158 9.5921 109.483 0.589722 86.3882 0.589722C63.2936 0.589722 41.6187 9.5921 25.3105 25.9002C9.00238 42.2084 0 63.918 0 86.9779C0 110.038 9.00238 131.747 25.3105 148.056C41.6187 164.364 63.3283 173.366 86.3882 173.366C109.483 173.366 131.158 164.364 147.466 148.056C163.774 131.747 172.776 110.038 172.776 86.9779C172.776 63.918 163.809 42.243 147.5 25.9002ZM142.584 143.208C127.557 158.235 107.613 166.476 86.3882 166.476C65.1634 166.476 45.185 158.201 30.1926 143.208C15.1655 128.181 6.9249 108.237 6.9249 87.0125C6.9249 65.7877 15.2002 45.8093 30.1926 30.8169C45.2196 15.7899 65.1634 7.54925 86.3882 7.54925C107.613 7.54925 127.591 15.8245 142.584 30.8169C157.611 45.844 165.851 65.7877 165.851 87.0125C165.851 108.237 157.611 128.181 142.584 143.208Z" fill="#408B54"/>
<path d="M134.101 71.7777C133.72 70.5312 132.474 69.5271 131.089 69.2501L102.87 65.1298L102.766 64.922L90.2319 39.6115C89.6086 38.2611 88.3968 37.4648 86.8387 37.4648C85.4191 37.4648 84.1034 38.2958 83.4455 39.6115L70.8075 65.1298L42.5886 69.2501C41.2382 69.3886 40.0956 70.3235 39.5762 71.7431C39.1954 73.1627 39.5762 74.6515 40.5803 75.621L61.0088 95.4609L56.196 123.68C55.9536 124.996 56.5422 126.381 57.6848 127.281C59.0006 128.043 60.4894 128.146 61.7013 127.523L86.8041 114.331L112.045 127.523C112.53 127.766 113.153 127.904 113.811 127.904C114.573 127.904 115.3 127.662 115.923 127.177L115.958 127.142C117.066 126.415 117.689 124.892 117.447 123.541L112.634 95.4609L133.062 75.5864C134.205 74.6169 134.586 73.1627 134.101 71.7777ZM106.159 91.3405C105.224 92.2754 104.774 93.5565 105.017 94.7337L108.825 117.17L88.6045 106.61C88.1198 106.368 87.4966 106.229 86.8387 106.229C86.3539 106.229 85.6961 106.506 85.0728 106.748L64.8521 117.309L68.6608 94.8722C68.7993 93.5565 68.3838 92.31 67.5182 91.479L51.2447 75.4825L73.8199 72.2624C75.101 72.1239 76.209 71.3622 76.6937 70.2888L86.8387 49.7219L96.9491 70.2196C97.6762 71.3968 98.7495 72.1239 99.8229 72.2278L122.433 75.3094L106.159 91.3405Z" fill="#408B54"/>
</svg>
