<svg width="138" height="138" viewBox="0 0 138 138" fill="none" xmlns="http://www.w3.org/2000/svg">
<path d="M117.812 20.216C104.758 7.19038 87.4461 0 69 0C50.5539 0 33.2417 7.19038 20.216 20.216C7.19038 33.2417 0 50.5816 0 69C0 87.4184 7.19038 104.758 20.216 117.784C33.2417 130.81 50.5816 138 69 138C87.4461 138 104.758 130.81 117.784 117.784C130.81 104.758 138 87.4184 138 69C138 50.5816 130.837 33.2693 117.812 20.216ZM113.885 113.912C101.882 125.915 85.9527 132.497 69 132.497C52.0473 132.497 36.0902 125.887 24.1154 113.912C12.113 101.91 5.53106 85.9804 5.53106 69.0276C5.53106 52.0749 12.1407 36.1178 24.1154 24.1431C36.1178 12.1407 52.0473 5.55872 69 5.55872C85.9527 5.55872 101.91 12.1683 113.885 24.1431C125.887 36.1455 132.469 52.0749 132.469 69.0276C132.469 85.9804 125.887 101.91 113.885 113.912Z" fill="#408B54"/>
<path d="M98.0364 77.1842H98.0088H41.0043C39.8167 77.1842 38.8501 76.2176 38.8501 75.03C38.8501 58.1275 52.6041 44.3735 69.5066 44.3735C86.2986 44.3735 99.9697 57.9342 100.163 74.671C100.191 74.7814 100.191 74.9195 100.191 75.03C100.218 76.2176 99.224 77.1842 98.0364 77.1842ZM43.269 72.8758H95.7717C94.667 59.3703 83.3158 48.682 69.5342 48.682C55.725 48.682 44.3738 59.3427 43.269 72.8758Z" fill="#408B54"/>
<path d="M76.7425 35.9222H62.2704C61.0829 35.9222 60.1162 36.8889 60.1162 38.0765C60.1162 39.2641 61.0829 40.2307 62.2704 40.2307H67.3522V41.8326C67.3522 43.0202 68.3189 43.9868 69.5065 43.9868C70.6941 43.9868 71.6607 43.0202 71.6607 41.8326V40.2307H76.7425C77.9301 40.2307 78.8968 39.2641 78.8968 38.0765C78.9244 36.8889 77.9577 35.9222 76.7425 35.9222Z" fill="#408B54"/>
<path d="M101.213 96.1304H37.8006C34.6245 96.1304 32.0283 93.5343 32.0283 90.3582V84.9173C32.0283 81.7412 34.6245 79.1451 37.8006 79.1451H101.213C104.389 79.1451 106.985 81.7412 106.985 84.9173V90.3306C106.985 93.5343 104.416 96.1304 101.213 96.1304ZM37.8006 83.4536C36.9996 83.4536 36.3368 84.1164 36.3368 84.9173V90.3306C36.3368 91.1315 36.9996 91.7943 37.8006 91.7943H101.213C102.013 91.7943 102.676 91.1315 102.676 90.3306V84.9173C102.676 84.1164 102.013 83.4536 101.213 83.4536H37.8006Z" fill="#408B54"/>
<path d="M51.03 69.6168C50.8366 69.6168 50.6433 69.5891 50.45 69.5339C49.29 69.2025 48.6272 68.0149 48.931 66.8825C52.1899 55.0895 63.2649 51.9686 68.6505 51.9686C69.8381 51.9686 70.8048 52.9352 70.8048 54.1228C70.8048 55.3104 69.8381 56.277 68.6505 56.277C68.1258 56.277 56.2775 56.498 53.1014 68.0149C52.8528 68.9815 51.969 69.6168 51.03 69.6168Z" fill="#408B54"/>
</svg>
