<svg width="178" height="178" viewBox="0 0 178 178" fill="none" xmlns="http://www.w3.org/2000/svg">
<path d="M151.839 26.055C135.015 9.26715 112.703 0 88.929 0C65.1552 0 42.8428 9.26715 26.055 26.055C9.26715 42.8428 0 65.1908 0 88.929C0 112.667 9.26715 135.015 26.055 151.803C42.8428 168.591 65.1908 177.858 88.929 177.858C112.703 177.858 135.015 168.591 151.803 151.803C168.591 135.015 177.858 112.667 177.858 88.929C177.858 65.1908 168.627 42.8784 151.839 26.055ZM146.777 146.813C131.308 162.282 110.778 170.765 88.929 170.765C67.0799 170.765 46.514 162.246 31.0806 146.813C15.6116 131.344 7.12858 110.814 7.12858 88.9646C7.12858 67.1156 15.6472 46.5496 31.0806 31.1162C46.5496 15.6472 67.0799 7.16422 88.929 7.16422C110.778 7.16422 131.344 15.6829 146.777 31.1162C162.246 46.5853 170.729 67.1156 170.729 88.9646C170.729 110.814 162.246 131.344 146.777 146.813Z" fill="#408B54"/>
<path fill-rule="evenodd" clip-rule="evenodd" d="M128.065 58.2761H112.667L124.572 51.0762C128.172 48.902 124.893 43.6268 121.471 45.6941L107.998 53.8563C108.034 53.4286 108.069 53.0009 108.069 52.5732C108.069 46.2644 102.937 41.1318 96.6279 41.1318C93.2062 41.1318 90.1409 42.6645 88.0736 45.0882C85.9706 42.7001 82.941 41.1318 79.5193 41.1318C72.7115 41.1318 67.3651 47.1198 68.1848 53.8563L54.7118 45.6941C51.2901 43.6268 48.011 48.8663 51.6109 51.0762L63.5156 58.2761H48.1179C44.9813 58.2761 42.415 60.8424 42.415 63.9789V79.4123C42.415 82.5489 44.9813 85.1152 48.1179 85.1152V121.114C48.1179 127.423 53.2505 132.556 59.5593 132.556H116.695C123.004 132.556 128.136 127.423 128.136 121.114V85.1152C131.273 85.1152 133.839 82.5489 133.839 79.4123V63.9789C133.768 60.8424 131.237 58.2761 128.065 58.2761ZM50.9337 79.4123C49.3654 79.4123 48.0823 78.1292 48.0823 76.5609V66.4739C48.0823 63.5512 50.1852 63.9789 50.9337 63.9789H75.5986V79.4123H50.9337ZM59.5236 126.853C56.3871 126.853 53.8208 124.287 53.8208 121.15V85.1508H75.6342L75.6699 126.853H59.5236ZM73.7808 52.5732C73.7808 49.4366 76.3471 46.8703 79.4837 46.8703C82.6202 46.8703 85.1865 49.4366 85.1865 52.5732C85.1865 55.7098 82.6202 58.2761 79.4837 58.2761C76.3471 58.2761 73.7808 55.7098 73.7808 52.5732ZM81.7648 126.853L81.8004 64.0146H94.3467L94.3824 126.853H81.7648ZM90.925 52.5732C90.925 49.4366 93.4913 46.8703 96.6279 46.8703C99.7644 46.8703 102.331 49.4366 102.331 52.5732C102.331 55.7098 99.7644 58.2761 96.6279 58.2761C93.4913 58.2761 90.925 55.7098 90.925 52.5732ZM122.362 121.114C122.362 124.251 119.796 126.817 116.659 126.817H100.549L100.584 85.1152H122.398V121.114H122.362ZM128.065 76.5609C128.065 78.1292 126.782 79.4123 125.213 79.4123H100.549V63.9789H125.213C126.105 63.9789 128.065 63.4086 128.065 66.8304V76.5609Z" fill="#408B54"/>
</svg>
