<svg width="136" height="136" viewBox="0 0 136 136" fill="none" xmlns="http://www.w3.org/2000/svg">
<path d="M116.104 19.923C103.24 7.08617 86.1788 0 68 0C49.8213 0 32.7599 7.08617 19.923 19.923C7.08617 32.7599 0 49.8485 0 68C0 86.1515 7.08617 103.24 19.923 116.077C32.7599 128.914 49.8485 136 68 136C86.1788 136 103.24 128.914 116.077 116.077C128.914 103.24 136 86.1515 136 68C136 49.8485 128.941 32.7872 116.104 19.923ZM112.234 112.261C100.406 124.09 84.707 130.576 68 130.576C51.293 130.576 35.5671 124.063 23.7659 112.261C11.9375 100.433 5.4509 84.7343 5.4509 68.0273C5.4509 51.3202 11.9647 35.5944 23.7659 23.7932C35.5944 11.9647 51.293 5.47816 68 5.47816C84.707 5.47816 100.433 11.992 112.234 23.7932C124.063 35.6216 130.549 51.3202 130.549 68.0273C130.549 84.7343 124.063 100.433 112.234 112.261Z" fill="#408B54"/>
<path d="M107.792 90.3487C107.792 88.9587 106.729 87.9776 105.121 87.9231C104.521 87.9231 103.922 87.9231 103.213 87.9231C102.832 87.9231 102.396 87.9231 101.96 87.9231H101.714L101.85 87.7323C104.194 84.3255 104.113 80.6461 104.058 77.0758C104.058 76.5307 104.031 75.9856 104.031 75.4405C104.031 74.6774 104.031 73.9415 104.058 73.1784C104.085 70.4529 104.113 67.6457 103.731 64.9475C102.968 59.5239 98.4982 55.5447 92.8565 55.2449C90.7579 55.1359 88.6593 55.1631 86.4517 55.1904C85.4433 55.1904 84.3803 55.2177 83.3174 55.2177H83.2084V55.1086C83.0721 51.9471 82.0637 49.8485 80.0469 48.513C78.1118 47.2048 75.8769 47.3138 73.8874 47.3956C69.8264 47.5864 68.1912 49.3852 66.8284 55.1086L66.8012 55.2177H66.7194C65.7655 55.2177 64.8116 55.2177 63.885 55.1904C61.8409 55.1631 59.7423 55.1359 57.6709 55.2449C51.1298 55.5447 46.2785 60.5595 46.1968 67.1551C46.1695 69.8533 46.1695 72.6333 46.1968 75.3042C46.1968 75.9856 46.1968 76.6942 46.1968 77.3756C46.1423 80.8369 46.0878 84.4345 48.2954 87.6233L48.4044 87.814L48.1864 87.8413C45.897 88.0866 43.9619 87.5688 42.6264 86.3968C41.3182 85.2249 40.6096 83.3716 40.5824 81.1094C40.5551 75.0862 40.5551 68.9539 40.5551 63.0124C40.5551 60.9956 40.5551 58.9788 40.5551 56.9619C40.5551 55.7082 40.5551 54.4273 40.5551 53.1736C40.5551 50.6934 40.5824 48.1042 40.5551 45.5968C40.5006 39.8461 36.7122 36.1122 30.907 36.0577C30.0621 36.0577 29.7078 36.0305 29.517 36.0305C29.19 36.0305 29.19 36.0305 28.2088 36.0305H27.7182C26.7098 36.0305 25.8922 36.3303 25.3743 36.8754C24.9655 37.3114 24.7475 37.8838 24.7747 38.5379C24.802 40.0096 25.8922 40.909 27.6637 40.909C28.8357 40.9363 29.0537 40.9363 29.2717 40.909C29.4898 40.909 29.7078 40.909 30.8798 40.909C34.0958 40.9635 35.6765 42.5443 35.6765 45.7876C35.6765 49.2217 35.7038 52.683 35.7038 56.0625C35.7311 64.0754 35.7583 72.3335 35.622 80.4826C35.5403 84.2437 36.8757 87.596 39.3286 89.9126C41.618 92.0658 44.725 93.1287 48.0773 92.8561C48.2681 92.8289 48.4589 92.8289 48.6224 92.8289C48.8132 92.8289 48.9767 92.8289 49.1675 92.8289C49.3583 92.8289 49.5491 92.8289 49.7399 92.8289H49.8761V92.9651C49.7126 98.8249 52.1655 102.123 56.7443 102.286C61.214 102.422 63.7487 99.2337 64.0485 93.0469V92.9379H86.3699L86.3427 93.0742C85.9066 96.699 86.7242 99.0702 88.8501 100.515C90.3764 101.55 92.2569 102.177 93.7559 102.177C98.1984 102.095 100.461 98.9884 100.461 92.9379V92.8016H100.597C101.087 92.8016 101.605 92.8016 102.123 92.8016C103.131 92.8016 104.167 92.8289 105.176 92.8016C106.729 92.7471 107.792 91.7659 107.792 90.3487ZM51.1026 80.7006C51.0481 77.212 51.0753 73.669 51.0753 70.2621C51.0753 69.2537 51.0753 68.2726 51.1026 67.2641C51.1026 66.6373 51.2116 65.9287 51.4024 65.2201C52.22 62.2221 55.0545 60.069 57.889 60.3415H57.998V87.8686L57.8617 87.8413C53.6645 87.3507 51.1844 84.7343 51.1026 80.7006ZM58.3796 96.7535C57.9707 97.1351 57.4801 97.3259 56.9896 97.3259C56.9351 97.3259 56.9078 97.3259 56.8533 97.3259C55.5178 97.2441 54.7274 96.4537 54.7002 95.1728C54.6729 93.8918 55.4361 93.0469 56.7443 92.8834C57.2894 92.8016 57.8345 92.9651 58.2978 93.374C58.7884 93.81 59.0882 94.4369 59.1154 95.0637C59.1154 95.6633 58.8429 96.2902 58.3796 96.7535ZM71.7343 54.9179C71.8978 54.6181 72.0341 54.291 72.1431 53.9912C72.4156 53.3098 72.6337 52.7647 73.0152 52.683C74.3507 52.4104 75.8224 52.4104 77.1579 52.683C77.5395 52.7647 77.7575 53.2826 78.0301 53.9639C78.1663 54.291 78.3026 54.6181 78.4661 54.9451L78.5751 55.1359H71.598L71.7343 54.9179ZM87.1876 87.8413H63.0401V60.178H87.1876V87.8413ZM93.4561 97.3259C93.4016 97.3259 93.3471 97.3259 93.2926 97.3259C92.802 97.3259 92.3114 97.1351 91.9026 96.7535C91.412 96.3175 91.1395 95.6906 91.1395 95.0637C91.1395 94.4369 91.4393 93.81 91.9298 93.374C92.3932 92.9651 92.9383 92.7744 93.4834 92.8561C94.8461 93.0197 95.582 93.81 95.582 95.091C95.5547 96.3992 94.8188 97.1896 93.4561 97.3259ZM99.1523 75.9038C99.1523 76.4217 99.1523 76.9395 99.125 77.4846C99.125 79.0381 99.0978 80.6461 98.907 82.1996C98.4709 85.3884 95.8545 87.6233 92.3932 87.7868H92.2569V60.2052H92.3932C96.3451 60.3142 99.0433 63.2577 99.1523 67.5639C99.2068 70.5074 99.1796 73.4237 99.1523 75.9038Z" fill="#408B54"/>
</svg>
