<svg width="134" height="134" viewBox="0 0 134 134" fill="none" xmlns="http://www.w3.org/2000/svg">
<path d="M66.5597 82.8799C65.9731 82.8532 65.4131 83.0666 64.9597 83.4932C64.5331 83.8932 64.2664 84.4532 64.2397 85.0399C64.2131 85.6266 64.4264 86.2132 64.8531 86.6399C65.2531 87.0666 65.8131 87.3332 66.3997 87.3332C78.8264 87.7332 85.4397 89.3599 87.8664 90.4532C84.8264 91.8132 75.7064 93.6532 61.0931 93.6532C46.5064 93.6532 37.3597 91.8132 34.3464 90.4532C36.7731 89.3599 43.3864 87.7332 55.8131 87.3332C56.3997 87.3066 56.9597 87.0666 57.3597 86.6399C57.7597 86.2132 57.9731 85.6266 57.9731 85.0399C57.9464 84.4532 57.7064 83.8932 57.2531 83.4932C56.8264 83.0932 56.2397 82.8799 55.6531 82.8799C33.6797 83.5999 29.0664 87.3866 29.0664 90.4532C29.0664 93.3066 32.3197 95.1466 39.6264 96.4799C45.3864 97.5199 53.0131 98.1066 61.0931 98.1066C69.1731 98.1066 76.7997 97.5199 82.5597 96.4799C89.8664 95.1466 93.1197 93.2799 93.1197 90.4532C93.1197 87.3866 88.5064 83.5999 66.5597 82.8799Z" fill="#408B54"/>
<path d="M46.6134 81.7066C51.2534 81.7066 55.0134 77.9466 55.0134 73.3066C55.0134 68.6666 51.2534 64.9066 46.6134 64.9066C41.9734 64.9066 38.2134 68.6666 38.2134 73.3066C38.2134 77.9466 42 81.7066 46.6134 81.7066ZM41.9467 73.3066C41.9467 70.7199 44.0534 68.6133 46.64 68.6133C49.2267 68.6133 51.3334 70.7199 51.3334 73.3066C51.3334 75.8933 49.2267 78 46.64 78C44.0267 78 41.9467 75.8933 41.9467 73.3066Z" fill="#408B54"/>
<path d="M61.0935 92.6667C62.3202 92.6667 63.3335 91.68 63.3335 90.4267V32C63.3335 30.7733 62.3202 29.76 61.0935 29.76C59.8668 29.76 58.8535 30.7733 58.8535 32V90.4533C58.8802 91.68 59.8668 92.6667 61.0935 92.6667Z" fill="#408B54"/>
<path d="M103.12 40.4266C102.426 39.9199 101.493 39.8666 100.746 40.2666C92.7197 44.6666 86.0531 43.7866 80.9597 37.6533C74.8531 30.2933 66.5331 30.6133 66.1864 30.6133C65.5997 30.6399 65.0397 30.9066 64.6397 31.3333C64.2397 31.7599 64.0264 32.3466 64.0531 32.9333C64.1064 34.1599 65.1464 35.0933 66.3731 35.0666C66.4264 35.0666 72.8264 34.8533 77.5197 40.5066C82.7731 46.8266 89.5731 48.9066 97.2531 46.5866C96.1597 48.0266 94.7997 49.2533 93.1997 50.2399C87.2264 53.9733 78.3464 54.3199 66.8264 51.2266C66.2397 51.0666 65.6531 51.1466 65.1464 51.4399C64.6397 51.7333 64.2664 52.2133 64.1064 52.7999C63.9464 53.3866 64.0264 53.9733 64.3197 54.4799C64.6131 54.9866 65.0931 55.3599 65.6797 55.5199C71.1997 56.9866 76.2664 57.7333 80.7731 57.7333C86.6664 57.7333 91.6531 56.4533 95.6531 53.9199C102.64 49.5199 103.92 42.8533 103.973 42.5866C104.16 41.7866 103.813 40.9333 103.12 40.4266Z" fill="#408B54"/>
<path d="M113.6 19.4933C101.013 6.93333 84.32 0 66.5333 0C48.7467 0 32.0533 6.93333 19.4933 19.4933C6.93333 32.0533 0 48.7733 0 66.5333C0 84.2933 6.93333 101.013 19.4933 113.573C32.0533 126.133 48.7733 133.067 66.5333 133.067C84.32 133.067 101.013 126.133 113.573 113.573C126.133 101.013 133.067 84.2933 133.067 66.5333C133.067 48.7733 126.16 32.08 113.6 19.4933ZM109.813 109.84C98.24 121.413 82.88 127.76 66.5333 127.76C50.1867 127.76 34.8 121.387 23.2533 109.84C11.68 98.2667 5.33333 82.9067 5.33333 66.56C5.33333 50.2133 11.7067 34.8267 23.2533 23.28C34.8267 11.7067 50.1867 5.36 66.5333 5.36C82.88 5.36 98.2667 11.7333 109.813 23.28C121.387 34.8533 127.733 50.2133 127.733 66.56C127.733 82.9067 121.387 98.2667 109.813 109.84Z" fill="#408B54"/>
</svg>
