<svg width="19" height="20" viewBox="0 0 19 20" fill="none" xmlns="http://www.w3.org/2000/svg">
<path d="M9.5 14.3811C13.0171 14.3811 15.9964 16.7506 16.975 20H19C17.9681 15.6445 14.1022 12.4 9.5 12.4C4.89776 12.4 1.03187 15.6445 0 20H2.02499C3.00357 16.7506 5.98292 14.3811 9.5 14.3811Z" fill="white"/>
<path d="M9.50006 10.64C12.2228 10.64 14.4401 8.42273 14.4401 5.70001C14.4401 2.97729 12.2228 0.76001 9.50006 0.76001C6.77734 0.76001 4.56006 2.97729 4.56006 5.70001C4.56006 8.42273 6.77734 10.64 9.50006 10.64ZM9.50006 2.68165C11.1642 2.68165 12.5184 4.03586 12.5184 5.70001C12.5184 7.36416 11.1642 8.71837 9.50006 8.71837C7.83591 8.71837 6.4817 7.36416 6.4817 5.70001C6.4817 4.03586 7.83591 2.68165 9.50006 2.68165Z" fill="white"/>
</svg>
