<svg width="21" height="22" viewBox="0 0 21 22" fill="none" xmlns="http://www.w3.org/2000/svg">
<path d="M10.7045 1.84203C11.316 1.84203 11.9274 1.904 12.5182 2.02381C13.0966 2.14362 13.6626 2.31714 14.2038 2.5485C14.7368 2.77573 15.2491 3.05253 15.7324 3.37891C16.2076 3.70117 16.6579 4.06886 17.0628 4.47787C17.4718 4.88688 17.8395 5.33308 18.1617 5.80819C18.4881 6.28743 18.7649 6.80386 18.9921 7.33681C19.2194 7.87803 19.397 8.44403 19.5168 9.02243C19.6366 9.61322 19.6986 10.2247 19.6986 10.8361C19.6986 11.4476 19.6366 12.059 19.5168 12.6498C19.397 13.2282 19.2235 13.7942 18.9921 14.3354C18.7649 14.8684 18.4881 15.3807 18.1617 15.8641C17.8395 16.3392 17.4718 16.7895 17.0628 17.1944C16.6537 17.6034 16.2076 17.9711 15.7324 18.2933C15.2532 18.6197 14.7368 18.8965 14.2038 19.1237C13.6626 19.351 13.0966 19.5286 12.5182 19.6484C11.9274 19.7682 11.316 19.8302 10.7045 19.8302C9.70883 19.8302 8.73382 19.6691 7.80425 19.351C6.9036 19.0453 6.06079 18.5949 5.29648 18.0207C5.06925 17.8471 4.79245 17.7562 4.51151 17.7562C4.40409 17.7562 4.29668 17.7686 4.19339 17.7976L2.45406 18.2355L2.23097 18.2933C2.28881 18.157 2.34665 18.0248 2.40449 17.8885L2.99528 16.5086C3.1564 16.1285 3.13161 15.6988 2.92504 15.3435C2.53669 14.6742 2.23923 13.9553 2.03266 13.2117C1.82196 12.4432 1.71867 11.6459 1.71867 10.8403C1.71867 10.2288 1.78064 9.61736 1.90045 9.02656C2.02026 8.44816 2.19378 7.88216 2.42514 7.34094C2.65237 6.80799 2.92918 6.2957 3.25556 5.81232C3.57781 5.33721 3.9455 4.88688 4.35452 4.482C4.76353 4.07299 5.20972 3.7053 5.68483 3.38305C6.16408 3.05666 6.6805 2.77986 7.21346 2.55263C7.75467 2.3254 8.32068 2.14775 8.89908 2.02794C9.48574 1.904 10.0931 1.84203 10.7045 1.84203ZM10.7045 0.536499C5.01967 0.536499 0.40901 5.14716 0.40901 10.832C0.40901 12.7118 0.913044 14.4718 1.79304 15.988C1.24769 17.2687 0.685815 18.5867 0.111548 19.9335L0 20.1897L0.272674 20.1194C1.6567 19.7724 3.06964 19.4129 4.51151 19.0494C6.23431 20.3508 8.37852 21.1192 10.7045 21.1192C16.3893 21.1192 21 16.5086 21 10.8237C21 5.1389 16.3893 0.536499 10.7045 0.536499Z" fill="white"/>
<path d="M10.5104 5.9115C9.67582 5.9115 8.97761 6.04784 8.22569 6.28746L7.31265 6.59731C7.19284 6.63863 7.16392 6.70473 7.20523 6.81215L7.78363 8.38622C7.80429 8.46472 7.85387 8.51016 7.9241 8.51016C7.94889 8.51016 7.97368 8.50603 8.0026 8.49364L8.86193 8.2127C9.44033 8.02265 9.9361 7.94416 10.5145 7.94416C11.1714 7.94416 11.6837 8.25401 11.6837 8.60105C11.6837 8.88199 11.5474 9.01833 11.349 9.15053L10.4195 9.80743C9.54361 10.4271 9.27507 11.0716 9.27507 12.0384V12.497C9.27507 12.6044 9.34118 12.6705 9.44859 12.6705H11.2251C11.3325 12.6705 11.3986 12.6044 11.3986 12.497V12.0384C11.3986 11.7698 11.4523 11.5798 11.6672 11.4063L12.543 10.7866C13.4313 10.1297 13.8196 9.48104 13.8196 8.59279C13.8155 6.94435 12.7124 5.9115 10.5104 5.9115ZM10.3988 13.253C9.63037 13.253 9.17592 13.7116 9.17592 14.5048C9.17592 15.2857 9.63451 15.7567 10.3988 15.7567C11.1797 15.7567 11.6341 15.2857 11.6341 14.5048C11.6382 13.7075 11.1797 13.253 10.3988 13.253Z" fill="white"/>
</svg>
