<svg width="20" height="20" viewBox="0 0 20 20" fill="none" xmlns="http://www.w3.org/2000/svg">
<path d="M10 0C4.48161 0 0 4.48679 0 9.99666C0 15.5065 4.48829 20 10 20C15.5117 20 20 15.5132 20 10.0033C20 4.49348 15.5184 0 10 0ZM17.4448 6.12504H14.2475C13.8328 4.62721 13.1706 3.21632 12.2943 1.92578C14.5351 2.56102 16.388 4.10565 17.4448 6.12504ZM18.3946 10.0033C18.3946 10.7924 18.2876 11.5547 18.0803 12.2768H14.5953C14.7157 11.5279 14.7759 10.7656 14.7759 9.99666C14.7759 9.23437 14.7157 8.47208 14.602 7.72986H18.087C18.2876 8.45202 18.3946 9.21431 18.3946 10.0033ZM7.47826 13.8816H12.5686C12.0334 15.56 11.1572 17.0846 10.0268 18.3818C8.88963 17.0846 8.01338 15.5533 7.47826 13.8816ZM7.07692 12.2768C6.94314 11.5346 6.86957 10.7723 6.86957 9.99666C6.86957 9.221 6.93646 8.4654 7.07024 7.72986H12.9699C13.1037 8.4654 13.1706 9.221 13.1706 9.99666C13.1706 10.7723 13.097 11.5346 12.9632 12.2768H7.07692ZM1.60535 10.0033C1.60535 9.21431 1.71237 8.45871 1.91973 7.73654H5.44482C5.3311 8.47877 5.2709 9.23437 5.2709 10.0033C5.2709 10.7723 5.3311 11.5346 5.4515 12.2835H1.92642C1.71237 11.5547 1.60535 10.7857 1.60535 10.0033ZM10.0201 1.6115C11.1572 2.90873 12.0334 4.44667 12.5686 6.12504H7.46488C8.00669 4.44667 8.88294 2.90873 10.0201 1.6115ZM7.75251 1.9124C6.86956 3.20294 6.20736 4.62721 5.79264 6.12504H2.55518C3.61873 4.09228 5.49833 2.54096 7.75251 1.9124ZM2.55518 13.8816H5.79264C6.21405 15.3795 6.87625 16.8037 7.7592 18.0943C5.50502 17.4657 3.62542 15.9211 2.55518 13.8816ZM12.2876 18.0809C13.1706 16.7904 13.8261 15.3795 14.2475 13.8816H17.4448C16.388 15.901 14.5284 17.4457 12.2876 18.0809Z" fill="white"/>
</svg>
